<svg xmlns="http://www.w3.org/2000/svg" viewBox="0 0 963.95 184.11"><defs><style>.cls-1{fill:#b5b6b6;}</style></defs><g id="Layer_2" data-name="Layer 2"><g id="Layer_1-2" data-name="Layer 1"><path class="cls-1" d="M389.6,0H574.35c-.09,1.72-.28,3.44-.28,5.17q0,86.63,0,173.24v5.07H389.89v-5.07q0-86.62,0-173.24C389.88,3.44,389.69,1.72,389.6,0ZM524.13,45.45c-7.66,0-14.21.3-20.71-.1-4.9-.3-7.75,1-9.82,5.82-3.18,7.35-7.31,14.29-11.31,21.94-3.09-5.85-6.49-10.79-8.41-16.24-3.34-9.51-9.26-13.21-19.26-11.55-4.48.75-9.19.13-14.62.13,1,2.07,1.51,3.25,2.15,4.35,8.72,14.83,17.53,29.6,26.1,44.52a17,17,0,0,1,2.12,7.82c.24,10.93.19,21.86.05,32.8-.05,3,1,4,3.93,3.85,4.41-.2,8.83,0,13.25,0,6.4,0,6.4,0,6.41-6.2,0-10.4-.11-20.81.08-31.21a14.62,14.62,0,0,1,1.82-6.75C504.22,80,512.73,65.49,521.16,51,522,49.5,522.76,48,524.13,45.45Z"></path><path class="cls-1" d="M0,184.11V0H184.76c-.1,1.72-.28,3.44-.29,5.17q0,86.84.09,173.68c0,4.06-1,5.07-5.09,5.06q-87.13-.21-174.28-.08C3.46,183.83,1.73,184,0,184.11ZM79.73,85.35c-.1-2.23-.21-3.5-.21-4.78,0-10.27-.1-20.53,0-30.79,0-3.26-1.07-4.53-4.42-4.39-5.21.22-10.43.14-15.65,0-2.46,0-3.6.63-3.59,3.37q.12,43.38,0,86.78c0,2.47.85,3.26,3.26,3.2,5.48-.12,11-.19,16.45,0,3.09.12,4-1.16,3.92-4-.09-7.59,0-15.19,0-22.79V99.83a9.24,9.24,0,0,1,2.92,3.42c5.95,10.72,11.83,21.48,17.88,32.14.76,1.34,2.28,3.13,3.51,3.18,7.72.29,15.46.15,23.92.15-.94-2-1.51-3.44-2.26-4.78-7.19-12.92-14.36-25.86-21.67-38.72a5.42,5.42,0,0,1,0-6.15c7.33-12.85,14.5-25.79,21.7-38.71.74-1.33,1.3-2.76,2.31-4.91-7.71,0-14.62.18-21.52-.08-3.17-.12-4.8,1.15-6.23,3.78-6,11-12.12,21.92-18.22,32.87C81.34,82.88,80.77,83.7,79.73,85.35Z"></path><path class="cls-1" d="M779.19,0H964c-.1,1.72-.28,3.44-.28,5.17q0,86.63,0,173.24v5.07H779.49v-5.07q0-86.62,0-173.24C779.47,3.44,779.29,1.72,779.19,0ZM907.28,45.45c-8.09,0-15.16.1-22.22-.05-2.65-.06-4.1.94-5.34,3.22-6,11-12.11,21.94-18.21,32.89-.66,1.19-1.42,2.34-2.62,4.29,0-12.78-.08-24.51.06-36.24,0-3.13-1-4.28-4.18-4.16-5.08.19-10.18.2-15.25,0-3.24-.13-4.57.85-4.42,4.27.24,5.59.07,11.2.07,16.8,0,22.67.05,45.34-.07,68,0,3.29.92,4.5,4.3,4.32a114.05,114.05,0,0,1,14.44,0c4.18.31,5.23-1.22,5.14-5.2-.24-11.41-.08-22.84-.08-35.27.83,1.38,1.16,1.89,1.46,2.42,6.49,11.65,12.94,23.32,19.52,34.91.69,1.23,2.13,2.86,3.27,2.9,7.72.25,15.45.13,23.91.13-.94-2-1.5-3.45-2.25-4.79-7-12.7-14.06-25.43-21.27-38-1.49-2.59-1.7-4.53-.14-7.24,7.3-12.72,14.35-25.58,21.47-38.4C905.56,49,906.15,47.7,907.28,45.45Z"></path><path class="cls-1" d="M584.8,0h184c-.06,1.86-.17,3.73-.17,5.59q0,86.64.09,173.28c0,4.12-1.14,5-5.15,5q-86.55-.21-173.09-.09c-5.45,0-5.45,0-5.45-5.35Q585,92,585,5.59C585,3.73,584.86,1.86,584.8,0ZM721.73,138.68a25.57,25.57,0,0,0-.55-3.19q-14.26-43.38-28.55-86.75c-.79-2.39-2-3.39-4.61-3.34-7.22.15-14.45.19-21.66,0-3.06-.09-4.51,1-5.46,3.88q-13.77,42.06-27.73,84.08c-.51,1.57-.85,3.2-1.42,5.39h14.61c10,0,10.12,0,13-9.51.89-2.95,2.39-3.68,5.16-3.61,5.48.14,11,0,16.45.06,3.72.06,8.19-.88,10.91.85,2.27,1.45,2.39,6.15,3.68,9.33.44,1.08,1.52,2.67,2.35,2.69C705.75,138.76,713.6,138.68,721.73,138.68Z"></path><path class="cls-1" d="M195.2,0h184c-.06,1.86-.17,3.73-.17,5.59q0,86.64.09,173.28c0,4.12-1.13,5-5.15,5q-86.54-.21-173.09-.09c-5.44,0-5.45,0-5.45-5.35q0-86.43,0-172.88C195.37,3.73,195.26,1.86,195.2,0Zm46.58,138.74h14.58c10.3,0,10.41,0,13.35-9.59.81-2.66,2.06-3.59,4.79-3.54,8,.14,16.06.22,24.08,0,3.34-.1,4.65,1.2,5.52,4.23,2.59,9,2.7,8.93,12.22,8.93H332a19.78,19.78,0,0,0-.37-2.67c-9.62-29.3-19.23-58.61-29-87.86-.41-1.23-2.63-2.58-4.05-2.63-7.21-.27-14.45,0-21.66-.2-3.23-.1-4.69,1-5.7,4.07-7.53,23.14-15.27,46.21-22.92,69.31C246.15,125.16,244.11,131.58,241.78,138.74Z"></path><path class="cls-1" d="M666.58,105.93c3.26-10.38,6.38-20.33,9.87-31.48l9.92,31.48Z"></path><path class="cls-1" d="M296.71,106H276.89c3.21-10.26,6.31-20.18,9.42-30.1l.91-.06C290.33,85.77,293.45,95.66,296.71,106Z"></path></g></g></svg>