<svg xmlns="http://www.w3.org/2000/svg" viewBox="0 0 764.65 155.59"><defs><style>.cls-1{fill:#b5b6b6;}</style></defs><g id="Layer_2" data-name="Layer 2"><g id="Layer_1-2" data-name="Layer 1"><path class="cls-1" d="M135,19.81c-2.72,4.28-5.14,8.24-7.74,12.08-3.61,5.3-6.64,6.13-12.31,2.8-8.28-4.87-16.78-8.83-26.51-9.95-34.8-4-57.18,14.68-58.93,49.61-.59,11.8,1.12,23.32,7,33.76,10.35,18.26,26.93,25.1,47.11,23.8,7.26-.47,14.41-2.87,21.59-4.46,3.1-.69,4.31-2.57,4.2-5.89-.24-7.35-.08-14.7-.08-23-5.89,0-11.44,0-17,0-6.57-.08-7.79-1.32-7.88-7.92,0-4.24,0-8.47,0-13.14h50.07a20.65,20.65,0,0,1,.53,3.24c0,17.85.1,35.71-.09,53.55a8.12,8.12,0,0,1-2.6,5.77c-22.85,16.82-78.23,24.52-108.17-5.25C-.77,109.93-5.42,79.89,5.67,47.73,16.11,17.47,39.72,3.09,70.9.44c20.49-1.74,40,1.38,57.15,13.81C130.37,15.94,132.54,17.83,135,19.81Z"></path><path class="cls-1" d="M260,1.7c8.45,0,16.45-.67,24.23.34,3,.39,6.84,4.1,8,7.17C306.21,45.39,319.71,81.74,333.35,118c.19.51.62.92.23.37,13.85-36.14,27.9-72.85,42-109.53,1.85-4.81,5.23-7.45,10.7-7.31,7,.18,13.91,0,21.8,0-3.92,9.75-7.5,18.69-11.12,27.62-16,39.54-32.13,79.05-48,118.66-1.64,4.09-3.69,5.85-8.08,5.31a72.93,72.93,0,0,0-8.75-.06c-11.08,0-11.09,0-15.2-10.15q-27.66-68.2-55.3-136.41C261.07,5.18,260.68,3.72,260,1.7Z"></path><path class="cls-1" d="M149.71,135c2.91-4.78,5.18-8.84,7.78-12.69,3.24-4.78,7-5.5,12.07-2.6s9.91,6.2,15.16,8.67c8,3.77,16.57,4.13,25.13,2.1,9.76-2.31,15-8.44,16-18.3.94-8.78-2.57-15.19-12-19.13-9-3.72-18.41-6.21-27.54-9.51-22.59-8.17-31.88-21.75-30.18-43.81,1.46-19.08,16.31-35,37.26-38.51,20.64-3.47,39.83.13,56.52,14.66-2.4,4.65-4.62,9.12-7,13.5s-6,5.18-10.33,2.85c-3.94-2.11-7.79-4.44-11.87-6.21a34.72,34.72,0,0,0-26.2-1c-7,2.51-11.15,7.43-11.87,15.07-.7,7.34,2.59,12.53,8.81,15.66a173.61,173.61,0,0,0,16.69,6.81c6,2.28,12.18,4.1,18.07,6.6,25.14,10.66,33.76,34.44,21.42,59-7.36,14.65-19.68,22.8-35.59,25.38C188.54,157.35,167.87,151.18,149.71,135Z"></path><path class="cls-1" d="M582.42,68.58c2-3,3.73-6.24,6.09-8.93,18.32-20.83,55.16-16.59,68.39,8.8,11.35,21.77,11.31,44.76-.81,66.38-12.34,22-45.29,27.37-64.61,11.13-4.14-3.49-7.06-8.42-11.41-13.76-.35,5.26-.73,9.55-.9,13.84-.12,3.15-.41,5.85-4.59,5.92s-4.49-2.67-4.49-5.83q0-69,0-137.95c0-3.18-.18-6.13,4.7-6.13s5.43,2.26,5.4,6.14C580,25.26,580,42.33,580,59.4c0,3,.43,5.94.66,8.91Zm73.11,33.12c-1.9-8.61-2.72-16.24-5.3-23.22-4.93-13.31-14.38-22.19-29.15-23.37-14.39-1.16-26.3,4.3-33.39,17-10.5,18.78-10.46,38.37-.24,57.21,7,13,19,18.4,33.72,17.41,13.16-.89,22.4-8,27.29-19.67C651.91,118.79,653.37,109.71,655.53,101.7Z"></path><path class="cls-1" d="M530.12,134.43c-2.26,2.73-4.56,5.42-6.77,8.19-6.68,8.38-15.93,11.79-26.11,12.2-6.5.26-13.13-.91-19.61-2-10.35-1.74-19.12-14.63-19.47-25.06-.45-13.35,4.7-23.22,16.64-27.13,9.69-3.17,20-4.46,30.1-6.36,5.53-1,11.18-1.48,16.72-2.47,4.89-.86,7.76-4,9-8.81,3.39-13.31-4-24.57-17.54-27-9.24-1.69-18.22-1.52-26.81,2.62a20.58,20.58,0,0,0-11.63,13.77c-2.13,8-2.22,8-10.77,6.37-1.23-11.21,6-22.91,17.75-27.82,14.06-5.88,28.55-6,42.78-1,11.34,4,16.75,13,17,24.75.35,18.24.18,36.49.2,54.74,0,6.86.14,13.5,9.24,14.93,1,.15,2.27,2.66,2.14,4a4.92,4.92,0,0,1-3,3.4c-9.73,2.62-16.14-2.06-17.26-12.26a41.13,41.13,0,0,0-.94-4.35Zm.68-37.73c-8.42,1.67-16.32,3.19-24.21,4.79-7.59,1.55-15.24,2.86-22.72,4.85-7.86,2.09-13.46,7.08-14.78,15.41-1.4,8.93,2.33,15.9,9.73,20.88,8.7,5.85,28.28,5.29,36.77-.9C529.22,131.8,535.38,113.15,530.8,96.7Z"></path><path class="cls-1" d="M760.09,77.65c-5.73,1.09-9.55,1.11-11.54-5.92-2.58-9.13-9.46-14.5-19.33-16-9.61-1.48-18.75-1-26.76,4.86-10.36,7.65-9.68,21.79,2,27.1,9.08,4.13,19.21,6,28.84,8.9,5.92,1.81,12.28,3,17.57,5.92,17.8,10,18.62,34.65,1.07,45.09-17.35,10.32-36,10.55-54.12,1.47-10.79-5.42-15.2-15.43-16.07-27.12,8.21-2.23,8.44-1.48,11.54,5,2.47,5.22,6,10.65,10.5,14.05,11.28,8.51,31.79,7.62,42.32-.73,11.53-9.14,10.49-24.29-3-30-9.55-4.08-20.12-5.74-30.17-8.69a92.09,92.09,0,0,1-14.8-5.22,24.31,24.31,0,0,1-6.58-38.85c12.35-12.83,43.2-14.66,57-3.38C755.72,59.89,759.53,67.55,760.09,77.65Z"></path><path class="cls-1" d="M437.14,2.71c0,8,0,16.07,0,24.18q-.06,60.26-.17,120.51c0,7.77-6,3.38-10.45,5.12V145q0-67.26,0-134.53C426.53,1.61,426.55,1.61,437.14,2.71Z"></path></g></g></svg>