<svg xmlns="http://www.w3.org/2000/svg" viewBox="0 0 585.73 138.7"><defs><style>.cls-1{fill:#b5b6b6;}</style></defs><g id="Layer_2" data-name="Layer 2"><g id="Layer_1-2" data-name="Layer 1"><g id="Daracon"><g id="Home"><g id="daracon-white"><path id="Shape" class="cls-1" d="M.1,2.2H24.89c16,0,26.78.7,32.46,1.89S67.3,7.28,70.19,10a17.37,17.37,0,0,1,5.48,9.26c.79,3.39,1.09,10,1.09,19.92V75.77c0,9.36-.5,15.63-1.59,18.82A14.24,14.24,0,0,1,69.59,102a25.72,25.72,0,0,1-10,3.78c-3.89.7-9.86,1-17.73,1H.1ZM33.25,20.12v68.7c4.78,0,7.67-.7,8.76-2.29s1.7-5.88,1.7-12.85V33.16c0-4.78-.2-7.76-.6-9.16a4.17,4.17,0,0,0-2.49-2.88C39.33,20.52,36.84,20.12,33.25,20.12Z"></path><path id="Shape-2" data-name="Shape" class="cls-1" d="M145.26,2.2l19.11,104.54H130.52l-1.79-18.62H116.78l-1.89,18.62H80.64L97.67,2.2ZM127.83,69.7c-1.49-12-3.18-26.78-5-44.3-3.29,20.21-5.38,34.94-6.38,44.3Z"></path><path id="Shape-3" data-name="Shape" class="cls-1" d="M169.35,2.2h23.4c15.53,0,26.08.5,31.56,1.49a22.44,22.44,0,0,1,13.54,7.67c3.48,4.08,5.17,10.55,5.17,19.51s-1.19,13.64-3.68,16.43-7.37,4.48-14.53,5.08q9.85,1.89,13.14,5.37a16,16,0,0,1,4.28,6.08c.5,1.89.79,7.07.79,15.43v27.48H212.16V72.09c0-5.58-.5-9.06-1.59-10.35s-3.69-2-8.07-2v47H169.35ZM202.5,20.12v23.4q5.38,0,7.47-1.2c1.49-.89,2.19-3.58,2.19-8.26V28.28q0-4.87-2.09-6.57C208.68,20.72,206.19,20.12,202.5,20.12Z"></path><path id="Shape-4" data-name="Shape" class="cls-1" d="M312.22,2.2l19.11,104.54H297.38l-1.69-18.62H283.64l-1.79,18.62H247.6L264.53,2.2ZM294.8,69.7c-1.6-12-3.19-26.78-5-44.3-3.29,20.21-5.38,34.94-6.37,44.3Z"></path><path id="Shape-5" data-name="Shape" class="cls-1" d="M413.47,47.5H380.32v-18c0-5.28-.3-8.56-1-9.86s-2.29-2-4.68-2-4.38.9-5.18,2.49-1.09,5-1.09,10.35V79.06c0,5.08.4,8.46,1.09,10s2.39,2.29,5,2.29,4-.7,4.78-2.29,1.1-5.28,1.1-11.06V64.72h33.15V68.8c0,10.86-1,18.62-2.79,23.1s-6,8.56-12.34,11.95S384.1,109,374.84,109s-17.72-1.5-24-4.28-10.46-7-12.55-12-3-12.74-3-23V39.14a119.68,119.68,0,0,1,.89-17,21.65,21.65,0,0,1,5.68-10.85A30.55,30.55,0,0,1,354.83,3a55.4,55.4,0,0,1,19-3c9.75,0,17.82,1.59,24.09,4.58s10.55,7,12.54,11.55,3,11.75,3,21.5Z"></path><path id="Shape-6" data-name="Shape" class="cls-1" d="M500.29,63.43q0,15.83-.9,22.4a22.2,22.2,0,0,1-5.67,12,30.76,30.76,0,0,1-12.85,8.36A57,57,0,0,1,462,109a55.56,55.56,0,0,1-18.32-2.79,30.32,30.32,0,0,1-13.15-8.16,22.63,22.63,0,0,1-5.87-12c-.6-4.38-1-11.85-1-22.7V45.61c0-10.56.29-18,1-22.4a22.76,22.76,0,0,1,5.58-12A31,31,0,0,1,443.14,2.9,56.47,56.47,0,0,1,462,0,55.61,55.61,0,0,1,480.37,2.8,30.87,30.87,0,0,1,493.52,11a22.59,22.59,0,0,1,5.87,12c.6,4.38.9,11.85.9,22.7ZM467.23,29.08c0-4.88-.3-8-1-9.36s-2-2.09-4.09-2.09a5,5,0,0,0-4,1.69c-.89,1.1-1.39,4.38-1.39,9.76V78c0,6.08.3,9.86.89,11.25s2,2.1,4.29,2.1,3.68-.8,4.28-2.39,1-5.58,1-11.75Z"></path><polygon id="Shape-7" data-name="Shape" class="cls-1" points="585.51 2.2 585.51 106.74 556.64 106.74 539.51 59.25 539.51 106.74 511.83 106.74 511.83 2.2 539.21 2.2 557.93 49.29 557.93 2.2 585.51 2.2"></polygon><path id="Shape-8" data-name="Shape" class="cls-1" d="M497.4,121.87h-9.56v-2.09a5.54,5.54,0,0,0-.3-2.39c-.1-.4-.59-.5-1.29-.5s-1,.1-1.2.4a4.82,4.82,0,0,0-.3,2.19v10.85a4.36,4.36,0,0,0,.3,2,1.39,1.39,0,0,0,1.3.5,1.57,1.57,0,0,0,1.39-.6,4.41,4.41,0,0,0,.4-2.09v-2.78h-1.89V124H497.4v12.15h-6l-.9-1.6a7.29,7.29,0,0,1-2.49,1.6,12,12,0,0,1-3.48.49,13.08,13.08,0,0,1-4.48-.69,8.82,8.82,0,0,1-3.19-1.79,4.44,4.44,0,0,1-1.39-2.19,15.73,15.73,0,0,1-.3-3.49v-6.77a13.25,13.25,0,0,1,.59-4.68c.4-1,1.5-1.89,3.29-2.69a17.14,17.14,0,0,1,6.87-1.19,19.89,19.89,0,0,1,7,1,6.24,6.24,0,0,1,3.58,2.59,7.9,7.9,0,0,1,.9,4.18Z"></path><path id="Shape-9" data-name="Shape" class="cls-1" d="M509.64,117.59l-.29,2.49a7.22,7.22,0,0,1,5.77-2.79v6.47a15.15,15.15,0,0,0-3.68.4c-.8.3-1.3.7-1.4,1.19a12.82,12.82,0,0,0-.3,3.49v7.27h-9.16V117.59Z"></path><path id="Shape-10" data-name="Shape" class="cls-1" d="M537.72,124.16v4.48a14.67,14.67,0,0,1-.4,3.68,4.92,4.92,0,0,1-1.79,2.09,8.18,8.18,0,0,1-3.38,1.5,23.57,23.57,0,0,1-4.88.5,25.37,25.37,0,0,1-5.08-.4,10.41,10.41,0,0,1-3.29-1.2,4.74,4.74,0,0,1-1.69-2.09,9.57,9.57,0,0,1-.5-3.48v-4.68a7.71,7.71,0,0,1,.9-4.08,6.55,6.55,0,0,1,3.28-2.29,17.14,17.14,0,0,1,6-.9,21.07,21.07,0,0,1,5.37.6,10.72,10.72,0,0,1,3.39,1.49,5.25,5.25,0,0,1,1.59,1.79A7.44,7.44,0,0,1,537.72,124.16Zm-9.16-1.39a3.11,3.11,0,0,0-.3-1.8,1.17,1.17,0,0,0-1-.39,1.39,1.39,0,0,0-1.1.39,3.11,3.11,0,0,0-.3,1.8V131a3.27,3.27,0,0,0,.3,1.69,1.1,1.1,0,0,0,1,.4c.59,0,.89-.1,1.09-.4a2.35,2.35,0,0,0,.3-1.49Z"></path><path id="Shape-11" data-name="Shape" class="cls-1" d="M561.42,117.59v18.52h-9.26v-1.6a4.87,4.87,0,0,1-2.29,1.4,8.06,8.06,0,0,1-3.19.5,11.68,11.68,0,0,1-3.48-.4,4.34,4.34,0,0,1-2-1.2,3.51,3.51,0,0,1-.79-1.59,18.86,18.86,0,0,1-.2-3.19V117.59h9.16v12.54a10.22,10.22,0,0,0,.2,2.59c.2.3.6.4,1.19.4s1.1-.1,1.2-.4a7.87,7.87,0,0,0,.2-2.69V117.59Z"></path><path id="Shape-12" data-name="Shape" class="cls-1" d="M573.76,117.59v1.69a7.2,7.2,0,0,1,2.69-1.49,11.06,11.06,0,0,1,3.18-.5,9.68,9.68,0,0,1,3.69.7,3.46,3.46,0,0,1,2,1.69,7.71,7.71,0,0,1,.4,3.09v7.76a9.73,9.73,0,0,1-.5,3.59,3.5,3.5,0,0,1-2,1.69,10,10,0,0,1-3.68.6,10.46,10.46,0,0,1-3.09-.5,7.22,7.22,0,0,1-2.69-1.5v4.29H564.5V117.59Zm2.69,5.47a6.72,6.72,0,0,0-.2-2.09c-.1-.2-.5-.39-1.19-.39a1.4,1.4,0,0,0-1.2.49,6.36,6.36,0,0,0-.2,2v7.57a4.52,4.52,0,0,0,.3,2.09c.1.3.5.4,1.19.4s.9-.1,1.1-.4a5.7,5.7,0,0,0,.2-1.79Z"></path><rect id="Rectangle-path" class="cls-1" y="128.34" width="466.63" height="7.94"></rect></g></g></g></g></g></svg>