<svg xmlns="http://www.w3.org/2000/svg" viewBox="0 0 966.78 196.47"><defs><style>.cls-1{fill:#b5b6b6;}</style></defs><g id="Layer_2" data-name="Layer 2"><g id="Layer_1-2" data-name="Layer 1"><path class="cls-1" d="M799,61.06V41.23h55v22.5l-9.08,1.6c5.74,6.24,10.76,11.69,16.48,17.92l16.72-17.69-9.52-1.91V41.4h55V61.23c-5.75,4.19-11,7.15-15.14,11.2-9.65,9.41-18.78,19.34-29.12,30.12,15.18,13,25,31,44.67,40.32v18H868.66V141.08l9-2.08-16.29-17.42-16.14,17.36,8.82,2.22v20H799.15V143.6c6-4.42,11.73-7.78,16.38-12.26,9.45-9.11,18.31-18.82,28.15-29C828.53,89.22,818.35,71.89,799,61.06Z"></path><path class="cls-1" d="M661.63,161h-24V121.91c0-3.61.18-7.24-.1-10.83-.86-11.1-6.22-17-15.24-17.16A17.66,17.66,0,0,0,604.1,111c-.66,14.42-.29,28.88-.38,43.33,0,1.93-.16,3.85-.28,6.63H578.91c0-13.81,0-27.2,0-40.59,0-3.29.06-6.58-.15-9.85-.53-8.37-2.25-16-12.88-16.62a18,18,0,0,0-18.62,15.7c-.94,6.78-.51,13.76-.56,20.64-.07,10.13,0,20.26,0,31H523.22V75.06h22.63c.45,2.2,1,4.81,1.55,7.59,22.68-13.63,31-12.6,49,6.13,9.37-10.59,20.87-16.5,35.54-15,17.36,1.72,28.87,12.63,29.49,30C662.15,122.4,661.63,141.1,661.63,161Z"></path><path class="cls-1" d="M121.76,161.81c-8.15,0-15.5,1-22.32-.44-3.31-.72-7.12-5.68-8.11-9.4-3.26-12.31-10.5-17-23-14.79a24.2,24.2,0,0,1-7.92,0c-16.77-2.55-29.76.66-33.45,20-.36,1.89-4,4.25-6.31,4.47-6.51.61-13.12.21-20.7.21.67-3.08.79-5.26,1.61-7.14C16,121.58,30.86,88.63,44.8,55.32,49.21,44.76,57.34,49.87,64,48.65c5.85-1.06,9.31.87,11.89,7,14.21,33.55,29,66.86,43.61,100.26C120.16,157.33,120.64,158.83,121.76,161.81ZM74.81,114.89c-4.77-11-9.1-21-14.4-33.25C55.06,93.81,50.58,104,45.78,114.89Z"></path><path class="cls-1" d="M408.67,161.6H386.05c-.45-3-.86-5.77-1.22-8.2-35.73,20.33-57.08,7.08-65.69-29.6C315,106.08,322,89.69,338.27,79.55c15.34-9.58,30.8-7.81,46.3,4.13V41.42h24.1Zm-65.36-43c.14,13.83,9.81,24.51,21.94,24.22,11.65-.28,20.47-10.92,20.4-24.62-.07-14.4-9.1-24.82-21.31-24.63S343.17,104.49,343.31,118.59Z"></path><path class="cls-1" d="M305.13,161.23H282.67c-.43-2.56-.9-5.34-1.36-8.12-31.79,19.71-53.4,9.51-64.49-23.62-6.61-19.73,1.7-39.17,17.12-49.55,13.68-9.21,30.1-8.22,46.73,3.31.81-2.79,1.55-5.32,2.34-8h22.12ZM262,93.57c-12.12-.38-22,10.06-22.55,23.85-.54,13.29,9.1,24.9,21.07,25.38,11.64.47,21.25-9.93,21.67-23.44C282.6,105.14,273.82,93.93,262,93.57Z"></path><path class="cls-1" d="M762.77,75.59c-14.39,35.65-27.63,70.6-42.65,104.79-8.5,19.36-34.07,21.44-50.41,5.2L680,169.2c1.85,1.13,3.3,2.71,4.9,2.88,4.27.46,10.4,2,12.47-.05,2.67-2.7,4-9.21,2.65-12.92-9-25-18.89-49.69-28.46-74.49-1.15-3-2.15-6-3.29-9.15,24.5-2.42,24.5-2.42,32.84,18.63,4.34,11,8.67,21.91,14,35.4,4.26-10.35,7.67-18.56,11-26.8,1.24-3,2.38-6.1,3.61-9.15C738,73,738,73,762.77,75.59Z"></path><path class="cls-1" d="M490.41,135.67l12.38,13.39c-16.72,16.36-45.1,18.63-63.23,5.56-16.84-12.14-22.5-38.08-12.59-57.68,9.56-18.91,33.77-28.29,55.26-21.41,22.15,7.09,31.7,24.63,27.39,51.41H447.57C450.36,144.53,469.31,148.23,490.41,135.67Zm-42.77-26.54h37.74c-2.27-11.17-7.22-15.53-17.2-15.76C457.22,93.13,450.3,98.3,447.64,109.13Z"></path><path class="cls-1" d="M192.25,130.46l13.48,14.85c-19,21.63-49.83,23.72-70,5.27-17.79-16.26-18.07-46.42-.58-63.58,19-18.62,51-17.94,69.82,2-3.66,4.75-7.41,9.6-9.55,12.36-11.11-2.46-20.64-5.9-30.24-6.15-4.88-.13-11,4.56-14.66,8.7-7.51,8.48-5.34,24.67,3.18,32.21C164.13,145.41,176.77,143.72,192.25,130.46Z"></path><path class="cls-1" d="M966.78,79.84H933c1.07-6.1-4.07-13.09,6.4-16,4.59-1.28.75-19.93-2.84-23.79-2.92-3.15-3.29-8.62-5.22-14.33h27c0,9.56.15,19.25-.06,28.94-.13,6.16-.52,12.14,8.49,11.59Z"></path><path class="cls-1" d="M961.32,11.44c-3.86,2.56-8.09,7.55-11.47,7-3.75-.57-8.67-5.84-9.33-9.7-.43-2.55,5.55-8.49,9-8.76,3.71-.29,7.81,4.26,11.74,6.7C961.27,8.28,961.3,9.86,961.32,11.44Z"></path></g></g></svg>