<svg xmlns="http://www.w3.org/2000/svg" viewBox="0 0 951.57 207.58"><defs><style>.cls-1{fill:#b5b6b6;}</style></defs><g id="Layer_2" data-name="Layer 2"><g id="Layer_1-2" data-name="Layer 1"><path class="cls-1" d="M208.5,207.58c-2.91-1-5.77-2.1-8.74-2.81-34.33-8.21-53.1-40.67-44.5-77.08,7.62-32.25,39-50.55,72.73-42.49,26.82,6.4,43.8,36,35.76,64.39H183.27c2,32.67,31.36,41.48,69.93,21.66l12.6,20.26-41,16.07Zm-24.69-77.91H236c-.71-14.73-8-23.37-19.91-24.7C200.3,103.21,188.3,112,183.81,129.67Z"></path><path class="cls-1" d="M907.51,186.51c-13.66,16.4-31,21.69-51.17,17.06-29.91-6.88-47.07-37.91-41.54-74.15,5.27-34.48,26.65-55,57.57-52.88,11.36.78,22.39,6.32,33.66,9.71,5.74-17.19,2-29.08-12.88-32.16V31.59a31.58,31.58,0,0,1,4.94-1c44.43-1,38.43.67,38.56,35.68.11,31.58.21,63.16-.08,94.75-.1,10.33-.05,19.57,15,16.61v22.75C925.15,206.7,912.59,202.92,907.51,186.51Zm-63.83-45c1,4.75,1.56,10.93,3.47,16.69,4.84,14.62,15.18,22.2,29,22.11,14.1-.09,26-8.41,29.19-23.37a80.27,80.27,0,0,0,.44-30.62c-2.9-15.74-16.36-25.77-30.34-25.26s-26.31,11.29-29.78,26.51C844.75,131.68,844.46,135.93,843.68,141.52Z"></path><path class="cls-1" d="M116.44,155.36h30.79c0,12.43.61,24.63-.2,36.73-.56,8.31-7.51,11.74-14.95,11.82-32.66.32-65.32.41-98,0-11.81-.15-15.68-8.51-15.8-18.92-.17-14.26-.09-28.52-.09-42.79q0-45.1,0-90.21c0-19.09,0-19.09-18.21-22.78V.2C13.45.2,26.21-.34,38.91.36c11.62.64,15.63,6,15.67,19.82.15,44.33.07,88.67.08,133,0,3.47,0,6.94.07,10.41.14,6.39,2.86,10,9.91,10,13.61-.18,27.22-.09,40.83-.05C118.18,173.54,114.09,163.21,116.44,155.36Z"></path><path class="cls-1" d="M793.73,167.63,805,186c-24.08,24.35-69,25.54-94.66,2.86-24.72-21.84-28.07-64.09-7.16-90.44,16.76-21.11,50.54-28.63,75-16.68,21.3,10.4,33.4,37.88,26.81,63.22H721.07C722.63,179.49,753.63,188.78,793.73,167.63Zm-71.5-43.33h53c.53-14.26-7.9-24.4-21-25.7C738.4,97,725.09,107.45,722.23,124.3Z"></path><path class="cls-1" d="M319.18,107.49c14.32-20.41,32.19-27.7,54.69-22.78,16.95,3.71,26.76,14.48,27.92,32.31,1,16.11,1,32.33.7,48.49-.19,9.93,1.36,17.19,13.45,15.38.68,1.16,1.45,1.86,1.38,2.46-.85,6.85-1.49,19.54-2.83,19.61a145.13,145.13,0,0,1-35.29-2.44c-2.29-.44-4.19-8.6-4.31-13.25-.5-18.09,0-36.2-.27-54.3-.27-21.31-13.82-29.82-33.58-21.26-13,5.62-20,16.06-21,29.58a414.44,414.44,0,0,0-.87,48.45c.5,11.47-2.68,16.71-14.86,14.66-3.72-.63-7.64-.1-13.44-.1v-28c0-17.71-.44-35.44.18-53.14.34-9.56-2.13-15-13.62-13.54V86.94C309.67,82.37,316,85.21,319.18,107.49Z"></path><path class="cls-1" d="M553.21,17.28c-62.45-4.08-98.77,43-100.79,84.62-2,42,28.65,93.59,95.34,94.7-26.65,16.12-76.2,4.43-103.15-24.33a96.67,96.67,0,0,1-7.07-123.35C464,13.33,513.75-.85,553.21,17.28Z"></path><path class="cls-1" d="M603.16,103.41V79.56c10.65,0,20.67-.37,30.64.12,7.82.38,11.68,5.47,12.07,13,.23,4.39,0,8.81,0,17.07C656.43,89.35,668.06,76,690.73,78.44v27c-32.42,4.41-43.65,17.29-43.77,49.91-.05,15,0,30,0,46H617.38V154.32c0-11.95-.59-23.94.18-35.85C618.21,108.47,615.48,102.63,603.16,103.41Z"></path><path class="cls-1" d="M502.62,37.38c24.82-18.89,70.6-24.65,94.28,14.38C583.17,51.51,570.48,55,558,46.1,545.33,37.09,536.9,36.89,502.62,37.38Z"></path><path class="cls-1" d="M595.71,160.17c-24.07,39.93-71,33.85-99.11,13,25.33,6.17,46.68,2,67.74-10.43C572.16,158.13,584.37,160.85,595.71,160.17Z"></path></g></g></svg>