<svg xmlns="http://www.w3.org/2000/svg" viewBox="0 0 640.64 175.61"><defs><style>.cls-1{fill:#b5b6b6;}</style></defs><g id="Layer_2" data-name="Layer 2"><g id="Layer_1-2" data-name="Layer 1"><path class="cls-1" d="M85.05,84.57c10.72-24,21.29-47.73,31.8-71.44a5.94,5.94,0,0,1,6-4c14.44,0,28.87.05,43.3,0,1.73,0,2.25.45,2.13,2.15-.15,2.2.64,4.77-.25,6.55s-3.92,1.25-6,1.85c-5.89,1.73-8.43,4.6-9.08,10.71-.12,1.19-.14,2.39-.15,3.59,0,25.48.1,50.95-.07,76.43,0,6.84,2.7,11.46,8.88,14.17,2.19,1,4.36,2,6.63,2.73a2.06,2.06,0,0,1,1.63,2.34c.12,6.17.16,6.17-5.86,6.17-19.8,0-39.59,0-59.39,0-2.22,0-2.79-.61-2.73-2.76.13-5.07,0-5.07,4.62-7s8.7-4.11,10.24-9.3a16.66,16.66,0,0,0,.6-4.64c0-22.6.44-45.21,0-67.82,0-.45-.08-.9-.22-2.24-.85,1.95-1.37,3.16-1.91,4.36Q100.06,81.12,84.82,115.7a47.06,47.06,0,0,1-3.49,6.58c-3.52,5.39-8.8,5.45-12.55.23a22.71,22.71,0,0,1-1.72-2.83C55.89,97.78,45.47,75.53,35,53.32c-1.69-3.57-3.36-7.15-5.12-10.87-.72.77-.4,1.61-.4,2.34,0,22.06.06,44.12-.07,66.18,0,6.37,2.57,10.77,8.28,13.39a55.89,55.89,0,0,0,6.63,2.71,2.67,2.67,0,0,1,2.23,3.1c-.09,5.36,0,5.36-5.32,5.36-12.86,0-25.72-.05-38.58.06C.51,135.6,0,135.06,0,133c.14-5,0-5,4.74-6.87,5-2,9.33-4.59,10.46-10.38a20.55,20.55,0,0,0,.3-3.85q0-38.49,0-77c0-8.51-2.22-11.7-10.21-14.68-5.24-2-5.09-2-5.31-7.48C-.1,10,.5,9.06,3.52,9.1c13.78.19,27.56.12,41.35.06,3.19,0,5.24,1,6.68,4.1,10.58,22.88,21.32,45.68,32,68.51C84,82.58,84.41,83.36,85.05,84.57Z"></path><path class="cls-1" d="M397.75,83.88c0,10.34.16,20.69-.06,31-.14,6.68,2,9.86,9.16,12.19,1.1.36,2.91.08,3.12,1.25a27.64,27.64,0,0,1,.08,6.62c-.05.8-1,.56-1.64.56q-26.1,0-52.18,0c-1.34,0-1.79-.39-1.71-1.72.12-1.84-.45-3.91.24-5.46s3.05-1.23,4.64-1.85c5.35-2.09,7.47-4.92,7.48-10.64q.08-25.76,0-51.51c0-6-3.55-10.09-9.65-10.26-10.17-.29-20.35-.24-30.52,0-5.05.1-7.61,3.33-7.64,9-.05,11,0,22,0,33,0,4.52,0,9.05,0,13.57.11,11.67,8.17,17.06,19.05,12.87,1.12-.44,2.34-2,3.44-1,1.36,1.16,2.21,2.91,3.27,4.42.48.7-.18,1-.56,1.26-9.78,7.84-21,11.38-33.38,9.58-13.48-2-22.69-13.43-22.77-27.26-.09-14.49,0-29,0-43.48,0-7.76-3.18-11.18-10.94-11.93-1.1-.11-3.2.89-2.9-1.62.24-2-1.4-4.61,2.37-5.37a93.65,93.65,0,0,0,10.82-3.33c8.29-2.76,13.16-8.73,15.92-16.78,1.88-5.48,4.51-7.11,10.19-6.82,3.84.19,5.3,1.55,5.46,5.46.13,3.32,0,6.65,0,10,0,6.41,2.59,9.07,9,9.11,19.05.11,38.12.56,57-3a14.55,14.55,0,0,1,5-.08c5,.76,7.38,3,7.47,8,.21,11.44.07,22.89.07,34.33Z"></path><path class="cls-1" d="M277.65,123.34c-.17,6.45-5.06,11.52-12.55,13.15-11.46,2.5-21.68-2.36-27-12.83-.33-.65-.7-1.28-1.17-2.11-3.18,2.92-6.07,6-9.49,8.44-11.52,8.34-24,9.07-36.83,4.15-13.36-5.12-16.8-23.25-6.73-34,7.53-8.05,17.14-12.31,27.75-14.5,5.5-1.13,11.12-1.73,16.65-2.77,6.66-1.26,9.46-4.79,9.42-11.44,0-4.53-.15-9-1.8-13.35A11.58,11.58,0,0,0,219.62,52a7,7,0,0,0-3.72,5.21c-.62,3.26-1,6.55-1.65,9.8-2.32,11.79-15.32,16.92-25.18,10a11.9,11.9,0,0,1-4-15.19c3.2-7,9-11.11,15.84-13.84,12.48-5,25.52-5.63,38.72-4.67a36.81,36.81,0,0,1,15.13,4.06c8.26,4.48,11.42,12.13,12.84,20.81a101.85,101.85,0,0,1,1.06,16.27c0,10,0,19.94,0,29.91a18.21,18.21,0,0,0,.29,3.84c.88,4.06,3,5.56,7.09,5.3Zm-40-22.59c.13-8.26-2.31-10.41-8.93-9.22-2.26.4-4.48,1-6.73,1.55-9.32,2.13-12.5,9.14-13.1,16.63-.35,4.46,1.44,7.77,5.06,9.23,4.38,1.78,8.9,2,13.12-.3C234.69,114.5,237.2,107.4,237.65,100.75Z"></path><path class="cls-1" d="M462.69,41.66c13.38.07,24.35,3.78,33.12,12.94,4.73,4.92,6.41,10.94,5.88,17.54-.59,7.37-6.25,11.8-14.5,11.75-7.4,0-12.94-5-13.69-12.2a24.64,24.64,0,0,1,.71-8.51c.84-3.44-.4-6.16-3.06-8.29a13.71,13.71,0,0,0-18.24.34C447.6,59.93,445.1,66,444.42,73c-1.06,10.85,0,21.35,5.13,31.17,9,17.23,30.73,21.44,45.37,8.68,1.81-1.58,2.84-1.68,4.68-.16,3.76,3.11,3.93,3,.82,6.58-23.34,26.53-62.45,21.29-80.16-1.07C404.64,98.46,407.56,58.56,442,45.77,449,43.19,456.13,41.49,462.69,41.66Z"></path><path class="cls-1" d="M584,103.44a32.49,32.49,0,1,1-32.5-32.61A32.53,32.53,0,0,1,584,103.44Z"></path><path class="cls-1" d="M640.62,102.82a32.09,32.09,0,0,1-6.33,19.09c-2,2.66-2.94,2.72-5.28.38Q608.69,102,588.39,81.76c-2.26-2.26-2.19-3.12.31-5.07,18.62-14.54,47.55-3.23,51.37,20.08A28.51,28.51,0,0,1,640.62,102.82Z"></path><path class="cls-1" d="M583.54,84.43c1.19.11,1.66,1,2.29,1.62q19.81,19.74,39.62,39.52c2.55,2.55,2.55,2.56.09,5q-8.92,8.91-17.85,17.8c-2.53,2.53-2.9,2.54-5.34.1-6.21-6.2-12.39-12.43-18.63-18.59-1.28-1.26-1.78-2.38-.83-4.1,7.13-13,6.51-26.12,1-39.4C583.61,85.83,583.15,85.3,583.54,84.43Z"></path><path class="cls-1" d="M601.1,154.21a2.32,2.32,0,0,1-1,1.8c-6.14,6.14-12.31,12.24-18.41,18.42-1.6,1.62-2.88,1.53-4.44,0-7.74-7.79-15.54-15.54-23.32-23.31-.78-.77-1.71-1.55-1.29-2.83s1.44-1.51,2.59-1.76a42.76,42.76,0,0,0,21.39-12.08c2.44-2.44,2.65-2.44,5.09,0q8.94,8.9,17.85,17.81A5.09,5.09,0,0,1,601.1,154.21Z"></path><path class="cls-1" d="M378.38,35.35a17.5,17.5,0,0,1-17.65-17.78,17.73,17.73,0,1,1,17.65,17.78Z"></path></g></g></svg>