<svg xmlns="http://www.w3.org/2000/svg" width="165" height="41" viewBox="0 0 165 41" fill="none"><path d="M86.3988 32.1589H82.0832L77.9671 17.6846C77.7901 17.0538 77.569 16.1434 77.303 14.9542C77.037 13.765 76.8767 12.9377 76.8219 12.4732C76.7114 13.1812 76.5315 14.1005 76.2821 15.229C76.0327 16.3575 75.8254 17.1985 75.6591 17.7521L71.6428 32.1599H67.3272L64.19 20.0091L61.0029 7.89258H65.0535L68.5222 22.0344C69.064 24.3032 69.4513 26.306 69.684 28.0428C69.8053 27.102 69.9881 26.0508 70.2316 24.889C70.4751 23.7272 70.6962 22.7864 70.8957 22.0676L74.8465 7.89258H78.7807L82.8303 22.1341C83.2176 23.4514 83.6273 25.42 84.0586 28.0428C84.2248 26.4605 84.6228 24.4469 85.2536 22.0012L88.7057 7.89258H92.722L86.3988 32.1589Z" fill="black"></path><path d="M93.873 13.8013H98.1221L101.857 24.2084C102.421 25.6919 102.798 27.0855 102.985 28.391H103.118C103.218 27.7827 103.4 27.0434 103.666 26.175C103.932 25.3066 105.337 21.1817 107.883 13.8013H112.099L104.248 34.5989C102.821 38.4167 100.441 40.3256 97.111 40.3256C96.2475 40.3256 95.4064 40.2317 94.5879 40.043V36.9557C95.1747 37.0887 95.8436 37.1552 96.5966 37.1552C98.4781 37.1552 99.8003 36.0648 100.564 33.885L101.245 32.1589L93.873 13.8013Z" fill="black"></path><path d="M127.901 32.1589H113.976V29.7523L123.254 16.7888H114.54V13.8013H127.636V16.5228L118.557 29.1704H127.902V32.1589H127.901Z" fill="black"></path><path d="M138.678 32.4904C135.823 32.4904 133.591 31.6582 131.98 29.9918C130.369 28.3264 129.564 26.0332 129.564 23.1121C129.564 20.1138 130.312 17.757 131.805 16.0417C133.298 14.3264 135.351 13.4688 137.963 13.4688C140.386 13.4688 142.301 14.2051 143.706 15.6759C145.112 17.1477 145.815 19.173 145.815 21.7508V23.8592H133.582C133.638 25.641 134.119 27.0101 135.026 27.9675C135.934 28.9249 137.211 29.4031 138.861 29.4031C139.945 29.4031 140.955 29.3014 141.89 29.096C142.825 28.8917 143.829 28.5513 144.903 28.0751V31.2455C143.952 31.6993 142.988 32.0201 142.015 32.2078C141.042 32.3956 139.929 32.4904 138.678 32.4904ZM137.964 16.4231C136.725 16.4231 135.731 16.8162 134.984 17.6015C134.238 18.3877 133.792 19.5329 133.648 21.0379H141.981C141.959 19.5221 141.594 18.374 140.886 17.5937C140.177 16.8133 139.203 16.4231 137.964 16.4231Z" fill="black"></path><path d="M155.588 32.4906C153.298 32.4906 151.51 31.6604 150.227 30.0008C148.944 28.3413 148.302 26.0119 148.302 23.0126C148.302 20.0035 148.951 17.6594 150.252 15.9832C151.552 14.3061 153.353 13.468 155.655 13.468C158.066 13.468 159.904 14.3589 161.165 16.1407H161.365C161.176 14.8244 161.082 13.7838 161.082 13.0201V6.33105H165V32.1581H161.946L161.265 29.7515H161.082C159.833 31.5782 158.001 32.4906 155.588 32.4906ZM156.635 29.3368C158.239 29.3368 159.406 28.886 160.137 27.9834C160.867 27.0817 161.243 25.6178 161.265 23.5934V23.0458C161.265 20.733 160.889 19.0901 160.137 18.1161C159.385 17.1421 158.205 16.655 156.601 16.655C155.229 16.655 154.172 17.2105 153.431 18.3224C152.69 19.4353 152.319 21.0195 152.319 23.0781C152.319 25.1141 152.679 26.6661 153.398 27.734C154.117 28.8038 155.196 29.3368 156.635 29.3368Z" fill="black"></path><path d="M53.8381 0H48.1338C45.9589 0 43.9678 1.65661 42.9821 4.28626L37.0187 20.1952L34.6061 13.7927C34.1181 12.715 33.0395 12.0217 31.8513 12.0217H24.0024L31.0523 30.7285C31.5403 31.8061 32.619 32.4995 33.8071 32.4995H41.656L44.4979 24.9186L53.8381 0Z" fill="#004EFF"></path><path d="M21.2514 13.794L18.1318 22.0712L22.0612 32.4998C23.2454 32.4949 24.3182 31.8045 24.8052 30.7297L27.9287 22.4418L24.0023 12.0229C22.8142 12.0259 21.7384 12.7173 21.2514 13.794Z" fill="#B2D0FF"></path><path d="M19.0696 24.5763H19.0774L10.4188 1.63803C10.0394 0.63272 9.27761 0.000976562 8.44539 0.000976562H0L2.99051 7.92513H2.98366L11.5493 30.6199C11.9757 31.7514 13.0641 32.5005 14.2797 32.5005H22.0611L19.0696 24.5763Z" fill="#004EFF"></path></svg>