<svg xmlns="http://www.w3.org/2000/svg" width="165" height="41" viewBox="0 0 165 41" fill="none"><g clip-path="url(#clip0_4_20)"><path d="M86.3997 32.1612H82.0818L77.9645 17.6869C77.7878 17.056 77.5666 16.146 77.301 14.9567C77.0353 13.7674 76.8748 12.9404 76.8194 12.4757C76.7093 13.1825 76.5296 14.1008 76.2805 15.2306C76.0313 16.3604 75.8251 17.2012 75.662 17.7531L71.6436 32.1612H67.3266L64.19 20.0106L61.0039 7.89185H65.0541L68.5229 22.033C69.0103 24.0151 69.3981 26.0203 69.6848 28.0412C69.8067 27.0987 69.9893 26.0476 70.2326 24.8878C70.4758 23.728 70.6973 22.7873 70.897 22.0657L74.8473 7.89185H78.7809L82.8311 22.1329C83.2181 23.4505 83.6275 25.4203 84.0592 28.0421C84.2253 26.4599 84.6238 24.446 85.2547 22.0003L88.7084 7.89185H92.7251L86.3997 32.1612Z" fill="white"></path><path d="M93.8735 13.801H98.1225L101.857 24.2092C102.386 25.5583 102.764 26.9612 102.986 28.3928H103.119C103.253 27.643 103.436 26.9028 103.667 26.1769C103.933 25.3075 105.338 21.1843 107.883 13.8072H112.098L104.247 34.6051C102.821 38.422 100.442 40.3307 97.11 40.3313C96.2611 40.3328 95.4149 40.2379 94.5874 40.0486V36.9553C95.2475 37.0957 95.921 37.1627 96.5958 37.155C98.4765 37.155 99.7989 36.0653 100.563 33.8858L101.243 32.1603L93.8735 13.801Z" fill="white"></path><path d="M127.901 32.1612H113.978V29.7517L123.255 16.7874H114.54V13.801H127.636V16.5224L118.556 29.1704H127.901V32.1612Z" fill="white"></path><path d="M138.678 32.4907C135.824 32.4907 133.591 31.6578 131.981 29.992C130.371 28.3262 129.565 26.0328 129.565 23.1118C129.565 20.1142 130.313 17.7581 131.807 16.0434C133.301 14.3288 135.354 13.4714 137.964 13.4714C140.388 13.4714 142.302 14.2077 143.707 15.6803C145.113 17.1529 145.816 19.178 145.816 21.7556V23.8558H133.583C133.638 25.637 134.119 27.0065 135.027 27.9643C135.934 28.922 137.212 29.4003 138.86 29.3992C139.878 29.4063 140.894 29.3036 141.89 29.0926C142.926 28.8538 143.935 28.5116 144.903 28.0712V31.2422C143.985 31.6846 143.014 32.0079 142.015 32.2044C140.914 32.4051 139.797 32.5009 138.678 32.4907ZM137.964 16.4234C136.727 16.4234 135.734 16.816 134.985 17.6011C134.236 18.3863 133.791 19.5317 133.649 21.0373H141.986C141.963 19.5211 141.598 18.3725 140.891 17.5914C140.183 16.8104 139.208 16.421 137.964 16.4234Z" fill="white"></path><path d="M155.593 32.4908C153.303 32.4908 151.515 31.6608 150.231 30.0009C148.947 28.341 148.306 26.0117 148.306 23.0129C148.306 20.003 148.956 17.6598 150.256 15.9834C151.556 14.307 153.357 13.4688 155.66 13.4688C158.072 13.4688 159.909 14.3595 161.171 16.1407H161.369C161.182 14.8242 161.088 13.7843 161.088 13.0209V6.33154H165.004V32.1612H161.945L161.265 29.7544H161.083C159.832 31.5781 158.002 32.4902 155.593 32.4908ZM156.639 29.3365C158.243 29.3365 159.411 28.8856 160.141 27.9838C160.872 27.082 161.246 25.6176 161.265 23.5908V23.043C161.265 20.731 160.889 19.0879 160.137 18.1137C159.385 17.1394 158.207 16.6526 156.603 16.6532C155.231 16.6532 154.174 17.2092 153.433 18.3213C152.691 19.4334 152.32 21.0185 152.32 23.0765C152.32 25.1122 152.68 26.6641 153.4 27.732C154.12 28.7999 155.198 29.3338 156.634 29.3338L156.639 29.3365Z" fill="white"></path><path d="M53.838 0H48.1338C45.9585 0 43.9679 1.65665 42.9819 4.28698L37.0179 20.1908L34.6049 13.7887C34.3639 13.2606 33.976 12.8132 33.4874 12.4998C32.9989 12.1865 32.4304 12.0204 31.85 12.0216H24.0015L31.0513 30.728C31.2926 31.256 31.6808 31.7033 32.1694 32.0167C32.6581 32.33 33.2266 32.4961 33.8071 32.4951H41.6548L44.4971 24.9161L53.838 0Z" fill="white"></path><path d="M21.2513 13.7931L18.1323 22.0702L22.0615 32.496C22.6399 32.4948 23.2058 32.3276 23.692 32.0144C24.1783 31.7012 24.5645 31.2551 24.8049 30.7289L27.9282 22.4421L24.0017 12.0225C23.4218 12.0228 22.8541 12.1899 22.3665 12.5038C21.8788 12.8178 21.4917 13.2653 21.2513 13.7931Z" fill="#B2D0FF"></path><path d="M19.0705 24.5759H19.0776L10.4188 1.63722C10.0398 0.631737 9.27726 0 8.44495 0H0L2.99081 7.92455H2.98374L11.5497 30.6194C11.7601 31.1729 12.1339 31.6493 12.6216 31.9852C13.1093 32.3211 13.6877 32.5005 14.2799 32.4996H22.0613L19.0705 24.5759Z" fill="white"></path></g><defs><clipPath id="clip0_4_20"><rect width="165" height="40.3251" fill="white"></rect></clipPath></defs></svg>